<svg width="48" height="48" viewBox="0 0 48 48" fill="none" xmlns="http://www.w3.org/2000/svg">
<path d="M43.4319 20.6081H33.5519C33.132 19.0438 32.3077 17.6177 31.1617 16.4732C30.0158 15.3287 28.5887 14.5061 27.0239 14.0881L26.8239 12.4881L29.3599 12.0001C29.6837 11.9406 29.9894 11.8072 30.253 11.6101C30.5167 11.4131 30.7313 11.1577 30.8799 10.8641C31.0214 10.579 31.0878 10.2626 31.073 9.94481C31.0581 9.62697 30.9625 9.31815 30.7952 9.04752C30.6279 8.7769 30.3943 8.55339 30.1166 8.39811C29.8389 8.24282 29.5261 8.1609 29.2079 8.16005H26.2959V8.05605C26.2297 7.49789 25.961 6.98342 25.5408 6.61012C25.1206 6.23682 24.578 6.03064 24.0159 6.03064C23.4539 6.03064 22.9113 6.23682 22.4911 6.61012C22.0709 6.98342 21.8022 7.49789 21.7359 8.05605V8.16805H18.7919C18.4738 8.1689 18.161 8.25082 17.8833 8.40611C17.6056 8.56139 17.372 8.7849 17.2047 9.05552C17.0374 9.32615 16.9418 9.63497 16.9269 9.95281C16.9121 10.2706 16.9785 10.587 17.1199 10.8721C17.2696 11.1642 17.4846 11.418 17.7482 11.6136C18.0118 11.8092 18.3169 11.9415 18.6399 12.0001L21.1759 12.4641L20.9759 14.0641C19.4112 14.4821 17.9841 15.3047 16.8382 16.4492C15.6922 17.5937 14.8679 19.0198 14.4479 20.5841H4.56795C4.08179 20.5962 3.61872 20.794 3.27372 21.1368C2.92873 21.4795 2.72797 21.9413 2.71262 22.4274C2.69727 22.9134 2.8685 23.387 3.19117 23.7508C3.51385 24.1146 3.96352 24.3412 4.44795 24.3841L6.15995 24.4881C5.95783 24.8646 5.85073 25.2847 5.84795 25.7121C5.84795 26.4207 6.12946 27.1003 6.63056 27.6014C7.13165 28.1025 7.81129 28.3841 8.51995 28.3841C9.22861 28.3841 9.90824 28.1025 10.4093 27.6014C10.9104 27.1003 11.1919 26.4207 11.1919 25.7121C11.1851 25.3996 11.1228 25.0908 11.0079 24.8001L14.3279 25.0001C15.1999 29.7201 19.2959 33.4081 23.9999 33.4081C28.7039 33.4081 32.7999 29.7281 33.6719 25.0001L36.9839 24.8001C36.8698 25.0993 36.8076 25.4159 36.7999 25.7361C36.7999 26.4447 37.0815 27.1243 37.5826 27.6254C38.0837 28.1265 38.7633 28.4081 39.472 28.4081C40.1806 28.4081 40.8602 28.1265 41.3613 27.6254C41.8624 27.1243 42.1439 26.4447 42.1439 25.7361C42.1412 25.3087 42.0341 24.8886 41.832 24.5121L43.5439 24.4081C44.0284 24.3652 44.478 24.1386 44.8007 23.7748C45.1234 23.411 45.2946 22.9374 45.2793 22.4514C45.2639 21.9653 45.0632 21.5035 44.7182 21.1608C44.3732 20.818 43.9101 20.6202 43.4239 20.6081H43.4319ZM8.51995 26.8081C8.30827 26.8065 8.10181 26.7423 7.92657 26.6235C7.75134 26.5048 7.61518 26.3368 7.53527 26.1408C7.45536 25.9448 7.43527 25.7295 7.47753 25.5221C7.51979 25.3146 7.62252 25.1244 7.77275 24.9753C7.92299 24.8261 8.11401 24.7248 8.32173 24.6841C8.52946 24.6434 8.74459 24.6651 8.94001 24.7464C9.13543 24.8278 9.30238 24.9652 9.41982 25.1413C9.53727 25.3174 9.59994 25.5244 9.59995 25.7361C9.59995 25.8775 9.57196 26.0176 9.51759 26.1481C9.46322 26.2787 9.38354 26.3973 9.28314 26.4969C9.18275 26.5966 9.06363 26.6754 8.93264 26.7288C8.80165 26.7822 8.6614 26.8091 8.51995 26.8081ZM39.4799 26.8081C39.2679 26.8081 39.0607 26.7452 38.8844 26.6274C38.7081 26.5096 38.5707 26.3422 38.4896 26.1463C38.4084 25.9504 38.3872 25.7349 38.4285 25.5269C38.4699 25.319 38.572 25.128 38.7219 24.978C38.8719 24.8281 39.0629 24.726 39.2708 24.6847C39.4788 24.6433 39.6943 24.6645 39.8902 24.7457C40.0861 24.8268 40.2535 24.9642 40.3713 25.1405C40.4891 25.3168 40.5519 25.524 40.5519 25.7361C40.5519 26.0204 40.439 26.293 40.238 26.4941C40.0369 26.6951 39.7643 26.8081 39.4799 26.8081ZM29.2079 9.79205C29.2534 9.79079 29.2984 9.80206 29.3379 9.82463C29.3774 9.84721 29.4099 9.88022 29.4319 9.92005C29.4551 9.96019 29.4673 10.0057 29.4673 10.0521C29.4673 10.0984 29.4551 10.1439 29.4319 10.1841C29.3951 10.2558 29.3419 10.3178 29.2765 10.3651C29.2112 10.4124 29.1356 10.4435 29.0559 10.4561L26.6159 10.9041L26.4799 9.79205H29.2079ZM18.9279 10.4561C18.8483 10.4435 18.7727 10.4124 18.7074 10.3651C18.642 10.3178 18.5888 10.2558 18.5519 10.1841C18.5288 10.1439 18.5166 10.0984 18.5166 10.0521C18.5166 10.0057 18.5288 9.96019 18.5519 9.92005C18.5739 9.88022 18.6065 9.84721 18.646 9.82463C18.6855 9.80206 18.7305 9.79079 18.7759 9.79205H21.4879L21.3519 10.9041L18.9279 10.4561ZM23.3039 8.27205C23.3293 8.1056 23.4134 7.95372 23.5411 7.84397C23.6688 7.73423 23.8316 7.67389 23.9999 7.67389C24.1683 7.67389 24.3311 7.73423 24.4588 7.84397C24.5865 7.95372 24.6706 8.1056 24.6959 8.27205L25.3759 13.7601C24.4624 13.6427 23.5375 13.6427 22.6239 13.7601L23.3039 8.27205ZM4.54395 22.8081C4.46825 22.804 4.39701 22.771 4.34491 22.7159C4.29282 22.6608 4.26384 22.5879 4.26395 22.5121C4.26395 22.4314 4.29598 22.3541 4.35299 22.2971C4.41 22.2401 4.48732 22.2081 4.56795 22.2081H14.1679C14.1679 22.4721 14.1679 22.7361 14.1679 23.0081C14.1679 23.1361 14.1679 23.2561 14.1679 23.3761L4.54395 22.8081ZM23.9999 31.8081C19.5999 31.8081 15.7359 27.6961 15.7359 23.0081C15.7359 18.6001 19.2879 15.2801 23.9999 15.2801C28.7119 15.2801 32.264 18.6001 32.264 23.0081C32.264 27.6961 28.3999 31.8081 23.9999 31.8081ZM43.4559 22.8081L33.8559 23.3841C33.8559 23.2641 33.8559 23.1361 33.8559 23.0081C33.8559 22.7361 33.8559 22.4721 33.8559 22.2081H43.4559C43.4959 22.2081 43.5354 22.2159 43.5723 22.2312C43.6092 22.2465 43.6427 22.2689 43.6709 22.2971C43.6991 22.3253 43.7215 22.3588 43.7368 22.3957C43.7521 22.4326 43.7599 22.4721 43.7599 22.5121C43.76 22.5516 43.752 22.5908 43.7367 22.6272C43.7213 22.6637 43.6988 22.6966 43.6704 22.7242C43.6421 22.7518 43.6085 22.7735 43.5717 22.7879C43.5348 22.8023 43.4955 22.8091 43.4559 22.8081Z" fill="white"/>
<path d="M27.512 18.752H20.488C20.1973 18.7509 19.9102 18.8159 19.6482 18.942C19.3863 19.0681 19.1565 19.2521 18.976 19.48C18.4005 20.184 17.9806 21.002 17.744 21.88C17.6664 22.1713 17.6571 22.4767 17.7167 22.7722C17.7764 23.0677 17.9034 23.3455 18.088 23.584C18.2668 23.8193 18.498 24.0098 18.7632 24.1403C19.0284 24.2709 19.3204 24.3378 19.616 24.336H28.416C28.7116 24.3378 29.0035 24.2709 29.2687 24.1403C29.534 24.0098 29.7651 23.8193 29.944 23.584C30.1285 23.3455 30.2556 23.0677 30.3152 22.7722C30.3749 22.4767 30.3656 22.1713 30.288 21.88C30.0514 21.002 29.6315 20.184 29.056 19.48C28.8722 19.2478 28.6372 19.0612 28.3693 18.9349C28.1015 18.8087 27.8081 18.746 27.512 18.752ZM25.112 20.352V22.752H22.912V20.352H25.112ZM19.376 22.616C19.341 22.5714 19.3176 22.5188 19.3078 22.463C19.2981 22.4072 19.3022 22.3498 19.32 22.296C19.4974 21.6334 19.8107 21.0149 20.24 20.48C20.2738 20.4407 20.3154 20.409 20.3623 20.3869C20.4092 20.3649 20.4602 20.353 20.512 20.352H21.312V22.752H19.616C19.5645 22.751 19.5139 22.7383 19.4681 22.7147C19.4224 22.6911 19.3826 22.6574 19.352 22.616H19.376ZM28.672 22.616C28.6405 22.6559 28.6004 22.6881 28.5547 22.7103C28.509 22.7325 28.4588 22.744 28.408 22.744H26.688V20.344H27.488C27.5398 20.345 27.5908 20.3569 27.6376 20.3789C27.6845 20.401 27.7262 20.4327 27.76 20.472C28.1911 21.0088 28.5045 21.6302 28.68 22.296C28.7018 22.3477 28.7103 22.4041 28.7048 22.46C28.6992 22.516 28.6796 22.5696 28.648 22.616H28.672Z" fill="white"/>
<path d="M41.0641 32.344C39.5649 32.3443 38.0911 32.73 36.784 33.4641C35.4769 34.1982 34.3805 35.256 33.6001 36.536C32.9404 36.2323 32.2223 36.0766 31.4961 36.08C30.2922 36.0817 29.1282 36.5116 28.2121 37.2928C27.2961 38.074 26.6878 39.1555 26.4961 40.344H26.2561C26.0439 40.344 25.8404 40.4283 25.6904 40.5783C25.5403 40.7283 25.4561 40.9318 25.4561 41.144C25.4561 41.3562 25.5403 41.5597 25.6904 41.7097C25.8404 41.8597 26.0439 41.944 26.2561 41.944H27.2001C27.4122 41.944 27.6157 41.8597 27.7657 41.7097C27.9158 41.5597 28.0001 41.3562 28.0001 41.144C28.0018 40.5129 28.1756 39.8943 28.5027 39.3545C28.8297 38.8148 29.2977 38.3744 29.8563 38.0807C30.4149 37.787 31.0429 37.6512 31.673 37.6877C32.303 37.7242 32.9111 37.9317 33.4321 38.288C33.8578 38.5826 34.213 38.9678 34.4721 39.416C34.5425 39.5381 34.644 39.6394 34.7663 39.7096C34.8885 39.7799 35.0271 39.8166 35.1681 39.816C35.3089 39.8145 35.4469 39.7759 35.5681 39.704C35.7497 39.5971 35.8818 39.4229 35.9357 39.2192C35.9897 39.0155 35.961 38.7987 35.8561 38.616C35.6011 38.1796 35.283 37.7833 34.9121 37.44C35.5462 36.3738 36.4468 35.4908 37.5254 34.8779C38.604 34.2649 39.8235 33.9431 41.0641 33.944C41.2762 33.944 41.4797 33.8597 41.6297 33.7097C41.7798 33.5597 41.8641 33.3562 41.8641 33.144C41.8641 32.9318 41.7798 32.7283 41.6297 32.5783C41.4797 32.4283 41.2762 32.344 41.0641 32.344Z" fill="white"/>
<path d="M22.936 40.344H21.528C21.3379 39.1562 20.7313 38.0748 19.8166 37.2935C18.9019 36.5122 17.7389 36.082 16.536 36.08C15.8098 36.0767 15.0916 36.2323 14.432 36.536C13.6487 35.2514 12.5473 34.1907 11.2341 33.4563C9.92096 32.7219 8.44053 32.3388 6.93599 32.344C6.72381 32.344 6.52033 32.4283 6.3703 32.5784C6.22027 32.7284 6.13599 32.9319 6.13599 33.144C6.13599 33.3562 6.22027 33.5597 6.3703 33.7097C6.52033 33.8598 6.72381 33.944 6.93599 33.944C8.17656 33.9432 9.39604 34.265 10.4746 34.8779C11.5532 35.4909 12.4538 36.3738 13.088 37.44C12.7171 37.7834 12.399 38.1797 12.144 38.616C12.039 38.7988 12.0104 39.0155 12.0643 39.2193C12.1182 39.423 12.2504 39.5972 12.432 39.704C12.5531 39.776 12.6911 39.8146 12.832 39.816C12.973 39.8166 13.1116 39.7799 13.2338 39.7097C13.356 39.6394 13.4575 39.5381 13.528 39.416C13.7871 38.9678 14.1422 38.5826 14.568 38.288C15.0318 37.9703 15.5659 37.7701 16.1243 37.705C16.6827 37.6398 17.2486 37.7115 17.7731 37.9139C18.2976 38.1162 18.7649 38.4433 19.1348 38.8667C19.5046 39.2901 19.7659 39.7971 19.896 40.344H19.736C19.5238 40.344 19.3203 40.4283 19.1703 40.5784C19.0203 40.7284 18.936 40.9319 18.936 41.144C18.936 41.3562 19.0203 41.5597 19.1703 41.7097C19.3203 41.8598 19.5238 41.944 19.736 41.944H22.936C23.1482 41.944 23.3516 41.8598 23.5017 41.7097C23.6517 41.5597 23.736 41.3562 23.736 41.144C23.736 40.9319 23.6517 40.7284 23.5017 40.5784C23.3516 40.4283 23.1482 40.344 22.936 40.344Z" fill="white"/>
</svg>
