<svg width="48" height="48" viewBox="0 0 48 48" fill="none" xmlns="http://www.w3.org/2000/svg">
<g clip-path="url(#clip0)">
<path d="M27.2001 42.128H9.86409C9.82978 42.128 9.79583 42.1211 9.76423 42.1078C9.73264 42.0944 9.70406 42.0748 9.68018 42.0502C9.6563 42.0256 9.63761 41.9964 9.62523 41.9644C9.61284 41.9324 9.60701 41.8983 9.60809 41.864V24.344C10.2713 24.6474 10.979 24.8419 11.7041 24.92V39.8C11.7041 40.0122 11.7884 40.2156 11.9384 40.3657C12.0884 40.5157 12.2919 40.6 12.5041 40.6H22.3121C22.5243 40.6 22.7277 40.5157 22.8778 40.3657C23.0278 40.2156 23.1121 40.0122 23.1121 39.8C23.1121 39.5878 23.0278 39.3843 22.8778 39.2343C22.7277 39.0843 22.5243 39 22.3121 39H13.2721V24.92C14.5492 24.7793 15.7637 24.2929 16.7849 23.5133C17.8061 22.7337 18.5954 21.6903 19.0677 20.4955C19.54 19.3006 19.6776 17.9996 19.4655 16.7324C19.2534 15.4652 18.6997 14.2799 17.8641 13.304H34.7601V24.048C34.7601 24.2602 34.8444 24.4636 34.9944 24.6137C35.1444 24.7637 35.3479 24.848 35.5601 24.848C35.7723 24.848 35.9757 24.7637 36.1258 24.6137C36.2758 24.4636 36.3601 24.2602 36.3601 24.048V12.52C36.3601 12.3078 36.2758 12.1043 36.1258 11.9543C35.9757 11.8043 35.7723 11.72 35.5601 11.72H16.0001C15.033 11.1661 13.9475 10.8516 12.8341 10.8029C11.7207 10.7542 10.6118 10.9726 9.60009 11.44V8.32799C9.59901 8.2937 9.60484 8.25955 9.61723 8.22756C9.62961 8.19558 9.6483 8.1664 9.67218 8.14178C9.69606 8.11715 9.72464 8.09758 9.75623 8.08421C9.78783 8.07085 9.82178 8.06397 9.85608 8.06399H17.9921V9.39999C17.9921 9.61216 18.0764 9.81565 18.2264 9.96568C18.3764 10.1157 18.5799 10.2 18.7921 10.2H29.2721C29.4843 10.2 29.6877 10.1157 29.8378 9.96568C29.9878 9.81565 30.0721 9.61216 30.0721 9.39999V8.06399H38.1681C38.2024 8.06397 38.2363 8.07085 38.2679 8.08421C38.2995 8.09758 38.3281 8.11715 38.352 8.14178C38.3759 8.1664 38.3946 8.19558 38.4069 8.22756C38.4193 8.25955 38.4252 8.2937 38.4241 8.32799V24.8C38.4241 25.0122 38.5084 25.2156 38.6584 25.3657C38.8084 25.5157 39.0119 25.6 39.2241 25.6C39.4363 25.6 39.6397 25.5157 39.7898 25.3657C39.9398 25.2156 40.0241 25.0122 40.0241 24.8V8.32799C40.022 7.84276 39.8283 7.37801 39.4852 7.0349C39.1421 6.69178 38.6773 6.4981 38.1921 6.49599H30.0401V6.19999C30.0401 5.98782 29.9558 5.78433 29.8058 5.6343C29.6557 5.48428 29.4523 5.39999 29.2401 5.39999H27.4241V4.59999C27.4136 3.97043 27.1561 3.37021 26.7072 2.92873C26.2582 2.48726 25.6537 2.2399 25.0241 2.23999H22.9681C22.3385 2.25048 21.7383 2.50797 21.2968 2.95692C20.8554 3.40588 20.608 4.01034 20.6081 4.63999V5.43999H18.7761C18.5639 5.43999 18.3604 5.52428 18.2104 5.6743C18.0604 5.82433 17.9761 6.02782 17.9761 6.23999V6.50399H9.86409C9.62178 6.50082 9.38124 6.54554 9.15627 6.63559C8.93129 6.72564 8.72633 6.85924 8.55313 7.02872C8.37993 7.1982 8.24192 7.40023 8.14701 7.62319C8.0521 7.84616 8.00217 8.08567 8.00009 8.32799V12.4C7.18278 13.063 6.52377 13.9001 6.0711 14.8503C5.61844 15.8004 5.38354 16.8396 5.38354 17.892C5.38354 18.9444 5.61844 19.9836 6.0711 20.9337C6.52377 21.8838 7.18278 22.7209 8.00009 23.384V41.864C8.00008 42.3506 8.19284 42.8174 8.53618 43.1622C8.87952 43.5071 9.34547 43.7019 9.83209 43.704H27.2001C27.4123 43.704 27.6157 43.6197 27.7658 43.4697C27.9158 43.3196 28.0001 43.1162 28.0001 42.904C28.0001 42.6918 27.9158 42.4883 27.7658 42.3383C27.6157 42.1883 27.4123 42.104 27.2001 42.104V42.128ZM22.9681 3.87199H25.0641C25.2763 3.87199 25.4797 3.95628 25.6298 4.1063C25.7798 4.25633 25.8641 4.45982 25.8641 4.67199V5.47199H22.1841V4.67199C22.184 4.46256 22.2661 4.26146 22.4127 4.11189C22.5593 3.96231 22.7587 3.87618 22.9681 3.87199ZM19.5601 6.99999H28.4721V8.59999H19.5601V6.99999ZM6.98408 17.896C6.98251 16.8077 7.30357 15.7435 7.90669 14.8376C8.50981 13.9318 9.36792 13.2251 10.3726 12.8068C11.3772 12.3885 12.4833 12.2775 13.5511 12.4876C14.6188 12.6978 15.6003 13.2198 16.3715 13.9876C17.1427 14.7555 17.6689 15.7347 17.8838 16.8015C18.0986 17.8683 17.9923 18.9749 17.5785 19.9814C17.1646 20.9878 16.4616 21.849 15.5584 22.4561C14.6552 23.0631 13.5923 23.3888 12.5041 23.392C11.0436 23.3941 9.64196 22.8165 8.60699 21.7861C7.57202 20.7556 6.98832 19.3565 6.98408 17.896Z" fill="white"/>
<path d="M36.2401 27.632C35.0833 27.6377 33.9408 27.8885 32.8881 28.368L32.7281 28.096C32.6227 27.9172 32.4519 27.7865 32.2519 27.7312C32.0519 27.676 31.8383 27.7007 31.6561 27.8C30.2659 28.6091 29.112 29.7682 28.3092 31.162C27.5063 32.5558 27.0825 34.1355 27.0801 35.744C27.0801 35.9561 27.1644 36.1596 27.3144 36.3097C27.4644 36.4597 27.6679 36.544 27.8801 36.544H28.1761C28.3295 38.1094 28.9343 39.5966 29.917 40.8248C30.8997 42.0531 32.2179 42.9694 33.7116 43.4626C35.2052 43.9557 36.81 44.0044 38.3308 43.6028C39.8516 43.2011 41.223 42.3664 42.2784 41.2001C43.3337 40.0337 44.0276 38.5859 44.2757 37.0327C44.5238 35.4794 44.3154 33.8875 43.6759 32.4504C43.0363 31.0134 41.9932 29.793 40.6731 28.9376C39.3531 28.0822 37.813 27.6286 36.2401 27.632ZM31.7841 29.6L34.8801 35H28.6961C28.8028 33.9335 29.1329 32.9015 29.6649 31.9711C30.197 31.0407 30.919 30.2328 31.7841 29.6ZM36.2401 42.304C34.6397 42.3018 33.0954 41.7139 31.8987 40.6513C30.702 39.5887 29.9356 38.1249 29.7441 36.536H36.2401C36.376 36.5316 36.5085 36.4926 36.6251 36.4228C36.7418 36.3529 36.8387 36.2545 36.9067 36.1369C36.9748 36.0192 37.0117 35.8861 37.0141 35.7501C37.0164 35.6142 36.984 35.4799 36.9201 35.36L33.6721 29.76C34.5672 29.3642 35.5397 29.1741 36.518 29.2034C37.4963 29.2328 38.4556 29.481 39.3254 29.9297C40.1952 30.3785 40.9534 31.0164 41.5444 31.7966C42.1353 32.5769 42.5439 33.4796 42.7402 34.4384C42.9365 35.3973 42.9155 36.3879 42.6787 37.3376C42.4419 38.2873 41.9954 39.1718 41.3719 39.9263C40.7484 40.6807 39.9638 41.2859 39.0758 41.6974C38.1877 42.1088 37.2187 42.3161 36.2401 42.304Z" fill="white"/>
<path d="M19.4639 26.592C19.3148 26.4478 19.1154 26.3672 18.9079 26.3672C18.7005 26.3672 18.5011 26.4478 18.3519 26.592L15.9999 28.912C15.8557 29.0612 15.7751 29.2605 15.7751 29.468C15.7751 29.6754 15.8557 29.8748 15.9999 30.024C16.0712 30.0984 16.1569 30.1574 16.2519 30.1973C16.3468 30.2372 16.4489 30.2572 16.5519 30.256C16.7618 30.2551 16.9629 30.1718 17.1119 30.024L18.8719 28.264L20.4719 29.864C20.6211 30.0082 20.8205 30.0888 21.0279 30.0888C21.2354 30.0888 21.4348 30.0082 21.5839 29.864L24.5999 26.84L25.9759 28.216C26.1251 28.3602 26.3245 28.4408 26.5319 28.4408C26.7394 28.4408 26.9388 28.3602 27.0879 28.216L31.9999 23.376C32.1441 23.2268 32.2247 23.0274 32.2247 22.82C32.2247 22.6125 32.1441 22.4132 31.9999 22.264C31.8508 22.1198 31.6514 22.0392 31.4439 22.0392C31.2365 22.0392 31.0371 22.1198 30.8879 22.264L26.5839 26.576L25.2079 25.2C25.0588 25.0558 24.8594 24.9752 24.6519 24.9752C24.4445 24.9752 24.2451 25.0558 24.0959 25.2L21.0719 28.224L19.4639 26.592Z" fill="white"/>
<path d="M10.3439 18.648C10.5832 18.7879 10.848 18.8784 11.1228 18.9141C11.3977 18.9498 11.6769 18.93 11.9439 18.856L13.4639 18.448C13.5309 18.4292 13.6009 18.4245 13.6698 18.4341C13.7386 18.4438 13.8047 18.4675 13.8639 18.504C13.924 18.5356 13.9766 18.5799 14.018 18.6337C14.0594 18.6876 14.0887 18.7497 14.1039 18.816C14.1408 18.9507 14.1227 19.0945 14.0537 19.216C13.9848 19.3374 13.8705 19.4266 13.7359 19.464L11.4559 20.072C11.2872 20.1362 11.1452 20.2555 11.0529 20.4107C10.9607 20.5658 10.9236 20.7476 10.9477 20.9264C10.9718 21.1053 11.0556 21.2708 11.1857 21.396C11.3157 21.5211 11.4843 21.5987 11.6639 21.616C11.7279 21.616 12.6239 21.384 12.6239 21.384L12.6959 21.64C12.7422 21.805 12.8402 21.9509 12.9756 22.056C13.111 22.1611 13.2765 22.22 13.4479 22.224C13.5168 22.2356 13.5871 22.2356 13.6559 22.224C13.854 22.166 14.022 22.0338 14.1249 21.8549C14.2277 21.676 14.2575 21.4643 14.2079 21.264L14.1439 21.008C14.4128 20.9393 14.6653 20.818 14.887 20.651C15.1086 20.484 15.2948 20.2747 15.4349 20.0351C15.575 19.7956 15.6661 19.5306 15.703 19.2556C15.7398 18.9806 15.7217 18.701 15.6497 18.433C15.5777 18.165 15.4532 17.914 15.2834 17.6946C15.1136 17.4751 14.9019 17.2915 14.6606 17.1545C14.4193 17.0174 14.1533 16.9297 13.8778 16.8963C13.6023 16.8629 13.323 16.8845 13.0559 16.96L11.5439 17.368C11.4094 17.4046 11.2659 17.3874 11.1439 17.32C11.0237 17.2485 10.9351 17.1342 10.8959 17C10.8618 16.8653 10.8821 16.7225 10.9525 16.6027C11.0229 16.4829 11.1376 16.3957 11.2719 16.36L13.5439 15.744C13.7435 15.6877 13.9134 15.5562 14.0178 15.3771C14.1223 15.198 14.1532 14.9853 14.1039 14.784C14.0788 14.6804 14.0331 14.5829 13.9698 14.4971C13.9064 14.4114 13.8265 14.3393 13.7348 14.2849C13.6432 14.2304 13.5415 14.1949 13.4359 14.1803C13.3304 14.1658 13.2229 14.1724 13.1199 14.2L12.3679 14.408L12.2959 14.152C12.2156 13.9829 12.0786 13.8473 11.9087 13.7689C11.7387 13.6904 11.5467 13.674 11.3659 13.7225C11.1851 13.7711 11.0271 13.8814 10.9193 14.0344C10.8115 14.1874 10.7608 14.3734 10.7759 14.56L10.8479 14.816C10.4475 14.9234 10.088 15.1472 9.81478 15.4589C9.54156 15.7707 9.36694 16.1565 9.31299 16.5676C9.25904 16.9786 9.32819 17.3964 9.5117 17.7681C9.6952 18.1399 9.98482 18.4488 10.3439 18.656V18.648Z" fill="white"/>
<path d="M31.4639 15.8H22.0319C21.8198 15.8 21.6163 15.8843 21.4662 16.0344C21.3162 16.1844 21.2319 16.3879 21.2319 16.6C21.2319 16.8122 21.3162 17.0157 21.4662 17.1657C21.6163 17.3158 21.8198 17.4 22.0319 17.4H31.4639C31.6761 17.4 31.8796 17.3158 32.0296 17.1657C32.1796 17.0157 32.2639 16.8122 32.2639 16.6C32.2639 16.3879 32.1796 16.1844 32.0296 16.0344C31.8796 15.8843 31.6761 15.8 31.4639 15.8Z" fill="white"/>
<path d="M31.464 18.416H25.696C25.4838 18.416 25.2803 18.5003 25.1303 18.6503C24.9803 18.8004 24.896 19.0038 24.896 19.216C24.896 19.4282 24.9803 19.6317 25.1303 19.7817C25.2803 19.9317 25.4838 20.016 25.696 20.016H31.464C31.6762 20.016 31.8796 19.9317 32.0297 19.7817C32.1797 19.6317 32.264 19.4282 32.264 19.216C32.264 19.0038 32.1797 18.8004 32.0297 18.6503C31.8796 18.5003 31.6762 18.416 31.464 18.416Z" fill="white"/>
</g>
<defs>
<clipPath id="clip0">
<rect width="48" height="48" fill="white"/>
</clipPath>
</defs>
</svg>
