<svg width="48" height="48" viewBox="0 0 48 48" fill="none" xmlns="http://www.w3.org/2000/svg">
<g clip-path="url(#clip0)">
<path d="M44.264 37.864H42.6C42.8188 37.4525 42.9341 36.994 42.936 36.528V23.64C43.2819 22.9439 43.4626 22.1773 43.464 21.4V16.264C43.464 15.7697 43.2677 15.2955 42.9181 14.946C42.5685 14.5964 42.0944 14.4 41.6 14.4H36V13.6C35.9979 11.5489 35.1822 9.5825 33.7319 8.13217C32.2815 6.68185 30.3151 5.86613 28.264 5.86401H19.736C17.685 5.86613 15.7185 6.68185 14.2682 8.13217C12.8179 9.5825 12.0022 11.5489 12 13.6V14.4H6.40004C5.90567 14.4 5.43156 14.5964 5.08199 14.946C4.73242 15.2955 4.53604 15.7697 4.53604 16.264V21.4C4.53627 22.18 4.71698 22.9494 5.06404 23.648V36.528C5.06599 36.994 5.18131 37.4525 5.40004 37.864H3.73604C3.52386 37.864 3.32038 37.9483 3.17035 38.0983C3.02032 38.2484 2.93604 38.4518 2.93604 38.664C2.93604 38.8762 3.02032 39.0797 3.17035 39.2297C3.32038 39.3797 3.52386 39.464 3.73604 39.464H19.096L19 40.824C18.9925 40.9411 19.0108 41.0584 19.0537 41.1676C19.0965 41.2768 19.1629 41.3753 19.248 41.456L23.44 45.52C23.5896 45.6666 23.7906 45.7487 24 45.7487C24.2094 45.7487 24.4105 45.6666 24.56 45.52L28.752 41.456C28.8372 41.3753 28.9035 41.2768 28.9464 41.1676C28.9893 41.0584 29.0076 40.9411 29 40.824L28.904 39.464H44.264C44.4762 39.464 44.6797 39.3797 44.8297 39.2297C44.9797 39.0797 45.064 38.8762 45.064 38.664C45.064 38.4518 44.9797 38.2484 44.8297 38.0983C44.6797 37.9483 44.4762 37.864 44.264 37.864ZM13.6 13.6C13.6022 11.9733 14.2493 10.4138 15.3996 9.26354C16.5498 8.11328 18.1093 7.46613 19.736 7.46401H28.264C29.8908 7.46613 31.4502 8.11328 32.6005 9.26354C33.7508 10.4138 34.3979 11.9733 34.4 13.6V14.4H32.8V13.6C32.8 12.397 32.3221 11.2432 31.4715 10.3926C30.6208 9.54191 29.4671 9.06401 28.264 9.06401H19.736C18.533 9.06401 17.3793 9.54191 16.5286 10.3926C15.6779 11.2432 15.2 12.397 15.2 13.6V14.4H13.6V13.6ZM31.2 13.6V14.4H29.664C29.5728 14.1552 29.4402 13.9279 29.272 13.728C29.0475 13.4631 28.7681 13.2501 28.4532 13.1037C28.1382 12.9573 27.7953 12.881 27.448 12.88H20.552C20.2048 12.881 19.8618 12.9573 19.5469 13.1037C19.232 13.2501 18.9526 13.4631 18.728 13.728C18.5598 13.9279 18.4272 14.1552 18.336 14.4H16.8V13.6C16.8 12.8213 17.1094 12.0746 17.66 11.5239C18.2106 10.9733 18.9574 10.664 19.736 10.664H28.264C28.6496 10.664 29.0314 10.74 29.3876 10.8875C29.7438 11.0351 30.0675 11.2513 30.3401 11.5239C30.6127 11.7966 30.829 12.1202 30.9765 12.4765C31.1241 12.8327 31.2 13.2145 31.2 13.6ZM19.2 37.864H8.00004C7.82459 37.864 7.65086 37.8295 7.48877 37.7623C7.32668 37.6952 7.1794 37.5968 7.05534 37.4727C6.93128 37.3487 6.83287 37.2014 6.76573 37.0393C6.69859 36.8772 6.66404 36.7035 6.66404 36.528V25.512C7.52002 26.1257 8.54677 26.4559 9.60004 26.456H10.4V27.464C10.3792 27.8619 10.4397 28.2599 10.5776 28.6337C10.7156 29.0076 10.9282 29.3494 11.2025 29.6384C11.4768 29.9274 11.8071 30.1576 12.1732 30.3148C12.5393 30.4721 12.9336 30.5532 13.332 30.5532C13.7305 30.5532 14.1248 30.4721 14.4909 30.3148C14.857 30.1576 15.1873 29.9274 15.4616 29.6384C15.7359 29.3494 15.9485 29.0076 16.0864 28.6337C16.2244 28.2599 16.2848 27.8619 16.264 27.464V26.456H20L19.2 37.864ZM12 27.464V25.064H14.664V27.464C14.6783 27.6476 14.6544 27.8322 14.5939 28.0061C14.5334 28.18 14.4377 28.3396 14.3126 28.4748C14.1875 28.6099 14.0358 28.7177 13.8671 28.7915C13.6983 28.8652 13.5162 28.9033 13.332 28.9033C13.1479 28.9033 12.9657 28.8652 12.797 28.7915C12.6282 28.7177 12.4766 28.6099 12.3515 28.4748C12.2264 28.3396 12.1306 28.18 12.0701 28.0061C12.0097 27.8322 11.9858 27.6476 12 27.464ZM20.08 24.856H16.264V24.8C16.2651 24.6249 16.2315 24.4514 16.1653 24.2894C16.099 24.1273 16.0013 23.98 15.8779 23.8558C15.7545 23.7316 15.6077 23.6331 15.4461 23.5659C15.2844 23.4986 15.1111 23.464 14.936 23.464H11.736C11.3817 23.464 11.0419 23.6048 10.7913 23.8553C10.5408 24.1059 10.4 24.4457 10.4 24.8V24.856H9.60004C8.68271 24.856 7.80284 24.4922 7.15344 23.8443C6.50405 23.1964 6.13815 22.3173 6.13604 21.4V16.264C6.13604 16.194 6.16385 16.1268 6.21336 16.0773C6.26287 16.0278 6.33002 16 6.40004 16H18.24L18.8 19.32C18.8616 19.7066 19.0442 20.0636 19.3217 20.3396C19.5992 20.6157 19.9572 20.7965 20.344 20.856L20.08 24.856ZM20.624 40.6L20.8 37.936L26.96 34.384L27.2 37.736L21.264 41.168L20.624 40.6ZM26.272 24.12L26.496 27.472L21.304 30.472L21.544 26.84L26.272 24.12ZM21.68 24.92L21.952 20.92H26.048L26.152 22.376L21.68 24.92ZM26.616 29.248L26.84 32.608L20.928 36.016L21.176 32.392L26.616 29.248ZM24 43.8L22.44 42.296L27.304 39.488L27.376 40.528L24 43.8ZM27.36 19.248H20.64C20.5764 19.2487 20.5147 19.2265 20.4662 19.1853C20.4177 19.1442 20.3857 19.0869 20.376 19.024L19.768 15.376C19.7487 15.2617 19.7544 15.1445 19.7848 15.0327C19.8151 14.9208 19.8695 14.8168 19.944 14.728C20.0191 14.6402 20.1124 14.5697 20.2173 14.5214C20.3223 14.473 20.4365 14.448 20.552 14.448H27.448C27.5636 14.448 27.6778 14.473 27.7827 14.5214C27.8877 14.5697 27.9809 14.6402 28.056 14.728C28.1306 14.8168 28.1849 14.9208 28.2153 15.0327C28.2457 15.1445 28.2514 15.2617 28.232 15.376L27.624 19.024C27.622 19.0926 27.5932 19.1577 27.5439 19.2055C27.4947 19.2533 27.4287 19.28 27.36 19.28V19.248ZM27.656 20.848C28.0418 20.789 28.3989 20.6093 28.6762 20.3348C28.9536 20.0603 29.137 19.7051 29.2 19.32L29.76 16H41.6C41.6701 16 41.7372 16.0278 41.7867 16.0773C41.8362 16.1268 41.864 16.194 41.864 16.264V21.4C41.8619 22.3173 41.496 23.1964 40.8466 23.8443C40.1972 24.4922 39.3174 24.856 38.4 24.856H37.6V24.8C37.6 24.4457 37.4593 24.1059 37.2087 23.8553C36.9582 23.6048 36.6184 23.464 36.264 23.464H33.064C32.889 23.464 32.7156 23.4986 32.554 23.5659C32.3923 23.6331 32.2456 23.7316 32.1222 23.8558C31.9987 23.98 31.9011 24.1273 31.8348 24.2894C31.7686 24.4514 31.735 24.6249 31.736 24.8V24.856H27.92L27.656 20.848ZM36 25.064V27.464C36.0143 27.6476 35.9904 27.8322 35.9299 28.0061C35.8694 28.18 35.7737 28.3396 35.6486 28.4748C35.5235 28.6099 35.3718 28.7177 35.2031 28.7915C35.0344 28.8652 34.8522 28.9033 34.668 28.9033C34.4839 28.9033 34.3017 28.8652 34.133 28.7915C33.9642 28.7177 33.8126 28.6099 33.6875 28.4748C33.5624 28.3396 33.4666 28.18 33.4061 28.0061C33.3457 27.8322 33.3218 27.6476 33.336 27.464V25.064H36ZM28.8 37.864L28 26.456H31.704V27.464C31.6832 27.8619 31.7437 28.2599 31.8816 28.6337C32.0196 29.0076 32.2322 29.3494 32.5065 29.6384C32.7808 29.9274 33.1111 30.1576 33.4772 30.3148C33.8433 30.4721 34.2376 30.5532 34.636 30.5532C35.0345 30.5532 35.4288 30.4721 35.7949 30.3148C36.161 30.1576 36.4913 29.9274 36.7656 29.6384C37.0399 29.3494 37.2525 29.0076 37.3904 28.6337C37.5284 28.2599 37.5888 27.8619 37.568 27.464V26.456H38.368C39.4213 26.4559 40.448 26.1257 41.304 25.512V36.528C41.3041 36.8769 41.1678 37.2119 40.9241 37.4616C40.6804 37.7112 40.3488 37.8557 40 37.864H28.8Z" fill="white"/>
</g>
<defs>
<clipPath id="clip0">
<rect width="48" height="48" fill="white"/>
</clipPath>
</defs>
</svg>
