<svg width="82" height="82" viewBox="0 0 82 82" fill="none" xmlns="http://www.w3.org/2000/svg">
<path d="M77.4491 68.1694L64.0831 49.2001C66.2551 45.1693 67.341 40.6428 67.2341 36.0654C67.1272 31.4879 65.8313 27.0171 63.4735 23.0921C61.1158 19.1671 57.7775 15.923 53.7866 13.6787C49.7956 11.4344 45.2895 10.2671 40.7108 10.2914C36.1322 10.3157 31.6387 11.5308 27.6718 13.8174C23.705 16.104 20.4013 19.3833 18.0853 23.3331C15.7694 27.2829 14.521 31.7673 14.4628 36.3456C14.4045 40.9239 15.5384 45.4386 17.7531 49.4461L4.55108 68.1694C4.31124 68.5038 4.1687 68.898 4.13926 69.3084C4.10981 69.7189 4.19463 70.1294 4.38429 70.4946C4.57395 70.8598 4.86105 71.1653 5.21374 71.3772C5.56644 71.5892 5.97095 71.6993 6.38242 71.6954H75.6178C76.0292 71.6993 76.4337 71.5892 76.7864 71.3772C77.1391 71.1653 77.4262 70.8598 77.6159 70.4946C77.8055 70.1294 77.8904 69.7189 77.8609 69.3084C77.8315 68.898 77.6889 68.5038 77.4491 68.1694ZM22.7824 46.8904L27.7024 53.8741L25.5157 56.9764L23.7391 55.1997C23.4879 54.9505 23.1499 54.8085 22.7961 54.8034C22.4423 54.8085 22.1043 54.9505 21.8531 55.1997L18.2587 58.7667L15.9901 56.5391L22.7824 46.8904ZM48.1751 26.3904L47.0544 27.8937C46.8865 28.1265 46.7962 28.4062 46.7962 28.6932C46.7962 28.9802 46.8865 29.26 47.0544 29.4927L48.1751 30.9961H42.1891V26.3767L48.1751 26.3904ZM40.8361 39.8657L48.6124 50.9084L45.9474 53.5734L41.9294 49.5554C41.6752 49.3131 41.3376 49.1779 40.9864 49.1779C40.6353 49.1779 40.2976 49.3131 40.0434 49.5554L36.2577 53.3001L33.3741 50.4164L40.8361 39.8657ZM31.8024 52.6851L35.3011 56.1837C35.5552 56.426 35.8929 56.5612 36.2441 56.5612C36.5952 56.5612 36.9329 56.426 37.1871 56.1837L41.0001 52.3707L45.0181 56.3887C45.2722 56.631 45.6099 56.7662 45.9611 56.7662C46.3122 56.7662 46.6499 56.631 46.9041 56.3887L50.1841 53.0951L61.4181 69.0304H20.2951L31.8024 52.6851ZM54.1201 54.0517L59.1904 46.8631L66.0238 56.5117L63.7414 58.7667L60.1334 55.1997C59.8822 54.9505 59.5442 54.8085 59.1904 54.8034C58.8366 54.8085 58.4986 54.9505 58.2474 55.1997L56.3067 57.1541L54.1201 54.0517ZM17.1244 36.6951C17.1236 33.1426 17.9205 29.6352 19.4564 26.4319C20.9923 23.2285 23.228 20.411 25.9984 18.1873C28.7688 15.9635 32.0032 14.3902 35.463 13.5837C38.9227 12.7771 42.5194 12.7577 45.9876 13.527C49.4558 14.2964 52.707 15.8347 55.5012 18.0285C58.2953 20.2223 60.5612 23.0157 62.1315 26.2023C63.7018 29.3889 64.5364 32.8875 64.5738 36.4398C64.6111 39.9921 63.8503 43.5074 62.3474 46.7264L60.9807 44.8541C60.7635 44.5757 60.4856 44.3506 60.1683 44.1958C59.8509 44.0409 59.5025 43.9604 59.1494 43.9604C58.7963 43.9604 58.4479 44.0409 58.1306 44.1958C57.8132 44.3506 57.5354 44.5757 57.3181 44.8541L52.4528 51.7557L42.6811 37.8157C42.5449 37.6338 42.3785 37.4766 42.1891 37.3511V33.6474H50.8537C51.0974 33.6381 51.3341 33.5639 51.5393 33.4323C51.7446 33.3007 51.9109 33.1167 52.0211 32.8992C52.1312 32.6817 52.1812 32.4386 52.1657 32.1953C52.1503 31.952 52.0701 31.7173 51.9334 31.5154L49.7878 28.7001L51.9334 25.8437C52.0696 25.6428 52.1499 25.4092 52.1659 25.167C52.1819 24.9248 52.1331 24.6827 52.0246 24.4656C51.916 24.2485 51.7516 24.0643 51.5482 23.9318C51.3449 23.7993 51.1099 23.7233 50.8674 23.7117H40.8497C40.4873 23.7117 40.1397 23.8557 39.8834 24.112C39.6271 24.3683 39.4831 24.7159 39.4831 25.0784V37.3784C39.2865 37.4997 39.1149 37.6574 38.9774 37.8431L29.3014 51.5097L24.6001 44.8541C24.3828 44.5757 24.1049 44.3506 23.7876 44.1958C23.4703 44.0409 23.1218 43.9604 22.7687 43.9604C22.4157 43.9604 22.0672 44.0409 21.7499 44.1958C21.4326 44.3506 21.1547 44.5757 20.9374 44.8541L19.4477 46.9587C17.9152 43.7544 17.1213 40.247 17.1244 36.6951ZM14.4457 58.7667L17.3157 61.6367C17.5699 61.879 17.9076 62.0142 18.2587 62.0142C18.6099 62.0142 18.9476 61.879 19.2017 61.6367L22.8097 58.0424L23.9714 59.2041L17.6437 68.1831C17.4667 68.4422 17.3456 68.7355 17.2884 69.0441H7.18875L14.4457 58.7667ZM64.4111 69.0441C64.3588 68.7363 64.2424 68.4429 64.0694 68.1831L57.8647 59.3817L59.2314 58.0151L62.8667 61.6231C63.1209 61.8654 63.4586 62.0005 63.8097 62.0005C64.1609 62.0005 64.4986 61.8654 64.7527 61.6231L67.6227 58.7531L74.8797 69.0304L64.4111 69.0441Z" fill="white"/>
</svg>
