<svg width="82" height="82" viewBox="0 0 82 82" fill="none" xmlns="http://www.w3.org/2000/svg">
<path d="M67.1034 14.268L64.2334 13.6666V13.2293C64.2334 12.1419 63.8015 11.0991 63.0326 10.3302C62.2637 9.56126 61.2208 9.1293 60.1334 9.1293H44.7994L29.8618 5.65796C29.334 5.53261 28.7865 5.51324 28.2512 5.60098C27.7159 5.68873 27.2032 5.88184 26.7431 6.16913C26.2829 6.45641 25.8843 6.83216 25.5704 7.27461C25.2565 7.71705 25.0336 8.21739 24.9144 8.74663L24.8324 9.11563H21.8668C20.7794 9.11563 19.7365 9.54759 18.9676 10.3165C18.1987 11.0854 17.7668 12.1282 17.7668 13.2156V39.7153L11.8081 65.6C11.6848 66.1268 11.667 66.6729 11.7557 67.2067C11.8444 67.7404 12.0379 68.2514 12.325 68.71C12.6121 69.1686 12.9872 69.5659 13.4286 69.8789C13.87 70.1919 14.369 70.4144 14.8968 70.5336L17.7668 71.2033V71.5723C17.7668 72.6597 18.1987 73.7025 18.9676 74.4714C19.7365 75.2403 20.7794 75.6723 21.8668 75.6723H37.3374L37.4878 75.7406L52.1384 79.13C52.6662 79.2553 53.2137 79.2747 53.749 79.1869C54.2843 79.0992 54.797 78.9061 55.2571 78.6188C55.7173 78.3315 56.1159 77.9558 56.4298 77.5133C56.7437 77.0709 56.9666 76.5705 57.0858 76.0413L57.1678 75.6723H60.1334C61.2208 75.6723 62.2637 75.2403 63.0326 74.4714C63.8015 73.7025 64.2334 72.6597 64.2334 71.5723V45.018L70.1921 19.2016C70.3154 18.6748 70.3332 18.1287 70.2445 17.5949C70.1558 17.0612 69.9623 16.5502 69.6752 16.0916C69.3881 15.633 69.013 15.2357 68.5716 14.9227C68.1302 14.6097 67.6312 14.3872 67.1034 14.268ZM17.7668 68.3333L15.5118 67.8003C15.3341 67.7617 15.1658 67.6879 15.017 67.5834C14.8681 67.4789 14.7416 67.3458 14.6449 67.1918C14.5482 67.0377 14.4831 66.866 14.4536 66.6865C14.4241 66.5071 14.4308 66.3235 14.4731 66.1466L17.7668 51.9333V68.3333ZM29.2468 8.32296L32.6498 9.11563H27.6888C27.815 8.82231 28.0399 8.58243 28.3245 8.43763C28.6091 8.29284 28.9354 8.25227 29.2468 8.32296ZM52.7534 76.4103L49.3641 75.6176H54.3114C54.1852 75.911 53.9603 76.1508 53.6757 76.2956C53.3911 76.4404 53.0648 76.481 52.7534 76.4103ZM61.5001 71.504C61.5001 71.8664 61.3561 72.2141 61.0998 72.4703C60.8435 72.7266 60.4959 72.8706 60.1334 72.8706H21.8668C21.5043 72.8706 21.1567 72.7266 20.9004 72.4703C20.6441 72.2141 20.5001 71.8664 20.5001 71.504V13.2293C20.5001 12.8668 20.6441 12.5192 20.9004 12.2629C21.1567 12.0066 21.5043 11.8626 21.8668 11.8626H60.1334C60.4959 11.8626 60.8435 12.0066 61.0998 12.2629C61.3561 12.5192 61.5001 12.8668 61.5001 13.2293V71.504ZM67.5271 18.5866L64.2334 32.8683V16.4L66.4884 16.9193C66.6676 16.9578 66.8372 17.032 66.9871 17.1374C67.1371 17.2428 67.2643 17.3773 67.3612 17.5328C67.4581 17.6884 67.5227 17.8618 67.5512 18.0429C67.5797 18.2239 67.5715 18.4088 67.5271 18.5866Z" fill="white"/>
<path d="M54.6666 65.3677H28.6999V54.2567C28.6999 53.8942 28.5559 53.5466 28.2996 53.2903C28.0433 53.034 27.6957 52.89 27.3332 52.89C26.9708 52.89 26.6231 53.034 26.3668 53.2903C26.1105 53.5466 25.9666 53.8942 25.9666 54.2567V66.7343C25.9666 67.0968 26.1105 67.4444 26.3668 67.7007C26.6231 67.957 26.9708 68.101 27.3332 68.101H54.6666C55.029 68.101 55.3766 67.957 55.6329 67.7007C55.8892 67.4444 56.0332 67.0968 56.0332 66.7343C56.0332 66.3719 55.8892 66.0243 55.6329 65.768C55.3766 65.5117 55.029 65.3677 54.6666 65.3677Z" fill="white"/>
<path d="M31.8843 30.3674C33.4551 30.3674 34.9617 29.7444 36.0736 28.635C37.1856 27.5256 37.8121 26.0204 37.8157 24.4497C37.8074 23.3502 37.4901 22.2752 36.9 21.3474L39.3874 18.8737C39.6447 18.6164 39.7893 18.2673 39.7893 17.9034C39.7893 17.5394 39.6447 17.1904 39.3874 16.9331C39.13 16.6757 38.781 16.5311 38.417 16.5311C38.0531 16.5311 37.704 16.6757 37.4467 16.9331L31.8707 22.5091L28.7683 19.4067C28.5123 19.1522 28.1659 19.0093 27.8048 19.0093C27.4438 19.0093 27.0974 19.1522 26.8413 19.4067C26.5868 19.6628 26.4439 20.0092 26.4439 20.3702C26.4439 20.7313 26.5868 21.0777 26.8413 21.3337C26.2625 22.2694 25.9594 23.3495 25.9667 24.4497C25.9667 26.0192 26.5901 27.5244 27.6999 28.6341C28.8097 29.7439 30.3149 30.3674 31.8843 30.3674ZM28.8913 23.3837L30.9277 25.4201C31.1822 25.6725 31.5258 25.8149 31.8843 25.8164C32.2286 25.8044 32.5556 25.6628 32.8 25.4201L34.8363 23.3837C34.9551 23.727 35.0196 24.0866 35.0277 24.4497C34.9746 25.26 34.6153 26.0197 34.0227 26.5748C33.4301 27.1299 32.6485 27.4388 31.8365 27.4388C31.0245 27.4388 30.2429 27.1299 29.6503 26.5748C29.0577 26.0197 28.6984 25.26 28.6453 24.4497C28.6641 24.0827 28.7474 23.7219 28.8913 23.3837Z" fill="white"/>
<path d="M31.8842 45.3461C33.0579 45.3488 34.206 45.0032 35.1832 44.3531C36.1604 43.703 36.9228 42.7776 37.3738 41.694C37.8248 40.6105 37.9442 39.4174 37.7169 38.266C37.4896 37.1145 36.9258 36.0564 36.0968 35.2255C35.2678 34.3946 34.211 33.8283 33.0601 33.5984C31.9091 33.3684 30.7158 33.4851 29.6312 33.9336C28.5466 34.3821 27.6195 35.1423 26.9671 36.118C26.3148 37.0937 25.9666 38.241 25.9666 39.4147C25.9701 40.9843 26.5943 42.4888 27.7029 43.6C28.8116 44.7112 30.3146 45.3388 31.8842 45.3461ZM31.8842 36.2304C32.5179 36.2277 33.1381 36.4133 33.6661 36.7636C34.1941 37.114 34.6061 37.6133 34.8498 38.1982C35.0935 38.7832 35.158 39.4273 35.0351 40.0489C34.9121 40.6705 34.6073 41.2416 34.1592 41.6897C33.7111 42.1378 33.14 42.4426 32.5184 42.5656C31.8968 42.6885 31.2526 42.624 30.6677 42.3803C30.0828 42.1366 29.5835 41.7246 29.2331 41.1966C28.8828 40.6686 28.6972 40.0484 28.6999 39.4147C28.7035 38.5713 29.0401 37.7634 29.6365 37.167C30.2329 36.5706 31.0408 36.234 31.8842 36.2304Z" fill="white"/>
<path d="M54.6667 48.3527H49.3093C48.9469 48.3527 48.5992 48.4966 48.3429 48.7529C48.0866 49.0092 47.9427 49.3569 47.9427 49.7193C47.9427 50.0818 48.0866 50.4294 48.3429 50.6857C48.5992 50.942 48.9469 51.086 49.3093 51.086H51.373L43.7333 58.7667L38.3623 53.3C38.1063 53.0455 37.7599 52.9026 37.3988 52.9026C37.0378 52.9026 36.6914 53.0455 36.4353 53.3L31.5427 58.2063C31.3996 58.3288 31.2834 58.4796 31.2014 58.6492C31.1193 58.8187 31.0732 59.0034 31.066 59.1916C31.0587 59.3798 31.0904 59.5675 31.1591 59.7429C31.2278 59.9183 31.332 60.0776 31.4652 60.2108C31.5984 60.3439 31.7577 60.4482 31.9331 60.5169C32.1085 60.5856 32.2961 60.6173 32.4844 60.61C32.6726 60.6027 32.8573 60.5566 33.0268 60.4746C33.1964 60.3926 33.3471 60.2764 33.4697 60.1333L37.4057 56.1973L42.763 61.5683C42.89 61.6964 43.0412 61.7981 43.2077 61.8675C43.3743 61.9369 43.5529 61.9726 43.7333 61.9726C43.9137 61.9726 44.0924 61.9369 44.2589 61.8675C44.4254 61.7981 44.5766 61.6964 44.7036 61.5683L53.3 53.0267V55.0767C53.3 55.4391 53.444 55.7867 53.7003 56.043C53.9566 56.2993 54.3042 56.4433 54.6667 56.4433C55.0291 56.4433 55.3767 56.2993 55.633 56.043C55.8893 55.7867 56.0333 55.4391 56.0333 55.0767V49.7193C56.0333 49.3569 55.8893 49.0092 55.633 48.7529C55.3767 48.4966 55.0291 48.3527 54.6667 48.3527Z" fill="white"/>
<path d="M42.8176 38.048H48.6806C49.0431 38.048 49.3907 37.904 49.647 37.6477C49.9033 37.3914 50.0473 37.0438 50.0473 36.6814C50.0473 36.3189 49.9033 35.9713 49.647 35.715C49.3907 35.4587 49.0431 35.3147 48.6806 35.3147H42.8176C42.4551 35.3147 42.1075 35.4587 41.8512 35.715C41.5949 35.9713 41.4509 36.3189 41.4509 36.6814C41.4509 37.0438 41.5949 37.3914 41.8512 37.6477C42.1075 37.904 42.4551 38.048 42.8176 38.048Z" fill="white"/>
<path d="M42.8176 43.5284H54.0653C54.4277 43.5284 54.7753 43.3844 55.0316 43.1281C55.2879 42.8718 55.4319 42.5242 55.4319 42.1617C55.4319 41.7992 55.2879 41.4516 55.0316 41.1953C54.7753 40.939 54.4277 40.795 54.0653 40.795H42.8176C42.4551 40.795 42.1075 40.939 41.8512 41.1953C41.5949 41.4516 41.4509 41.7992 41.4509 42.1617C41.4509 42.5242 41.5949 42.8718 41.8512 43.1281C42.1075 43.3844 42.4551 43.5284 42.8176 43.5284Z" fill="white"/>
<path d="M42.8176 23.0829H48.6806C49.0431 23.0829 49.3907 22.939 49.647 22.6827C49.9033 22.4264 50.0473 22.0787 50.0473 21.7163C50.0473 21.3538 49.9033 21.0062 49.647 20.7499C49.3907 20.4936 49.0431 20.3496 48.6806 20.3496H42.8176C42.4551 20.3496 42.1075 20.4936 41.8512 20.7499C41.5949 21.0062 41.4509 21.3538 41.4509 21.7163C41.4509 22.0787 41.5949 22.4264 41.8512 22.6827C42.1075 22.939 42.4551 23.0829 42.8176 23.0829Z" fill="white"/>
<path d="M42.8176 28.5496H54.0653C54.4277 28.5496 54.7753 28.4056 55.0316 28.1493C55.2879 27.893 55.4319 27.5454 55.4319 27.183C55.4319 26.8205 55.2879 26.4729 55.0316 26.2166C54.7753 25.9603 54.4277 25.8163 54.0653 25.8163H42.8176C42.4551 25.8163 42.1075 25.9603 41.8512 26.2166C41.5949 26.4729 41.4509 26.8205 41.4509 27.183C41.4509 27.5454 41.5949 27.893 41.8512 28.1493C42.1075 28.4056 42.4551 28.5496 42.8176 28.5496Z" fill="white"/>
</svg>
