<svg width="82" height="82" viewBox="0 0 82 82" fill="none" xmlns="http://www.w3.org/2000/svg">
<path d="M31.6657 24.3676H37.4741C37.8365 24.3676 38.1842 24.2236 38.4405 23.9673C38.6968 23.711 38.8407 23.3634 38.8407 23.0009C38.8407 22.6385 38.6968 22.2909 38.4405 22.0346C38.1842 21.7783 37.8365 21.6343 37.4741 21.6343H31.6657C31.3033 21.6343 30.9557 21.7783 30.6994 22.0346C30.4431 22.2909 30.2991 22.6385 30.2991 23.0009C30.2991 23.3634 30.4431 23.711 30.6994 23.9673C30.9557 24.2236 31.3033 24.3676 31.6657 24.3676Z" fill="white"/>
<path d="M52.5073 56.4844H48.6259C48.2635 56.4844 47.9159 56.6284 47.6596 56.8847C47.4033 57.141 47.2593 57.4886 47.2593 57.851C47.2593 58.2135 47.4033 58.5611 47.6596 58.8174C47.9159 59.0737 48.2635 59.2177 48.6259 59.2177H52.5073C52.8697 59.2177 53.2174 59.0737 53.4736 58.8174C53.7299 58.5611 53.8739 58.2135 53.8739 57.851C53.8739 57.4886 53.7299 57.141 53.4736 56.8847C53.2174 56.6284 52.8697 56.4844 52.5073 56.4844Z" fill="white"/>
<path d="M42.4351 56.4844H31.6657C31.3033 56.4844 30.9557 56.6284 30.6994 56.8847C30.4431 57.141 30.2991 57.4886 30.2991 57.851C30.2991 58.2135 30.4431 58.5611 30.6994 58.8174C30.9557 59.0737 31.3033 59.2177 31.6657 59.2177H42.4351C42.7975 59.2177 43.1452 59.0737 43.4015 58.8174C43.6578 58.5611 43.8017 58.2135 43.8017 57.851C43.8017 57.4886 43.6578 57.141 43.4015 56.8847C43.1452 56.6284 42.7975 56.4844 42.4351 56.4844Z" fill="white"/>
<path d="M69.454 57.1813L66.051 53.792V17.097C66.051 16.4168 65.917 15.7432 65.6567 15.1148C65.3964 14.4864 65.0149 13.9154 64.5339 13.4344C64.0529 12.9534 63.4819 12.5719 62.8535 12.3116C62.2251 12.0513 61.5515 11.9173 60.8713 11.9173H27.5656V8.65097C27.5656 8.28851 27.4217 7.94089 27.1654 7.68459C26.9091 7.42829 26.5614 7.2843 26.199 7.2843H21.2653C19.898 7.25468 18.574 7.76414 17.5793 8.70264C16.5845 9.64113 15.9989 10.9333 15.949 12.3V64.9166C15.949 66.2904 16.4947 67.6078 17.4661 68.5792C18.4374 69.5506 19.7549 70.0963 21.1286 70.0963H60.8713C62.245 70.0963 63.5625 69.5506 64.5339 68.5792C65.5053 67.6078 66.051 66.2904 66.051 64.9166V64.083C66.8961 64.1848 67.7519 64.0211 68.4998 63.6145C69.2477 63.208 69.8504 62.5787 70.2245 61.8141C70.5985 61.0495 70.7253 60.1874 70.5873 59.3474C70.4492 58.5075 70.0531 57.7313 69.454 57.1266V57.1813ZM18.6823 12.3C18.7177 11.6485 19.0089 11.0374 19.4927 10.5997C19.9765 10.162 20.6136 9.93318 21.2653 9.96297H24.8323V59.8463H21.2653C20.3645 59.8443 19.4772 60.065 18.6823 60.4886V12.3ZM60.8713 67.4176H21.1286C20.8146 67.4087 20.5053 67.3379 20.2186 67.2094C19.9319 67.0809 19.6732 66.8972 19.4575 66.6688C19.2417 66.4404 19.0731 66.1717 18.9612 65.8781C18.8493 65.5845 18.7963 65.2717 18.8053 64.9576C18.8143 64.6436 18.885 64.3343 19.0135 64.0476C19.142 63.7608 19.3257 63.5022 19.5541 63.2865C19.7826 63.0707 20.0512 62.9021 20.3449 62.7902C20.6385 62.6783 20.9512 62.6253 21.2653 62.6343H26.199C26.5614 62.6343 26.9091 62.4903 27.1654 62.234C27.4217 61.9777 27.5656 61.6301 27.5656 61.2676V14.6506H60.8713C61.1926 14.6506 61.5107 14.7139 61.8075 14.8369C62.1043 14.9598 62.374 15.14 62.6011 15.3672C62.8283 15.5943 63.0085 15.864 63.1314 16.1608C63.2544 16.4576 63.3176 16.7757 63.3176 17.097V51.0586L61.7186 49.4596C61.5916 49.3315 61.4404 49.2299 61.2739 49.1605C61.1073 49.0911 60.9287 49.0554 60.7483 49.0554C60.5679 49.0554 60.3893 49.0911 60.2227 49.1605C60.0562 49.2299 59.905 49.3315 59.778 49.4596L58.8213 50.4163L56.6483 48.2433C57.9918 46.7008 59.0063 44.9003 59.6298 42.9521C60.2534 41.0039 60.4727 38.949 60.2745 36.9131C60.0763 34.8772 59.4647 32.9031 58.4772 31.1118C57.4896 29.3204 56.1468 27.7494 54.5311 26.495C52.9153 25.2406 51.0606 24.3291 49.0803 23.8164C47.1001 23.3036 45.0361 23.2004 43.0145 23.513C40.993 23.8256 39.0566 24.5474 37.3237 25.6344C35.5908 26.7213 34.098 28.1504 32.9366 29.8343H31.6656C31.3032 29.8343 30.9556 29.9783 30.6993 30.2346C30.443 30.4909 30.299 30.8385 30.299 31.201C30.2919 31.5188 30.3958 31.8291 30.5929 32.0786C30.79 32.328 31.0678 32.501 31.3786 32.5676C30.224 35.138 29.8193 37.9822 30.211 40.7726C30.6027 43.563 31.775 46.1859 33.5926 48.339H31.6656C31.3032 48.339 30.9556 48.483 30.6993 48.7393C30.443 48.9956 30.299 49.3432 30.299 49.7056C30.299 50.0681 30.443 50.4157 30.6993 50.672C30.9556 50.9283 31.3032 51.0723 31.6656 51.0723H36.5993C39.2992 52.9052 42.5222 53.8099 45.7815 53.6496C49.0409 53.4894 52.1596 52.2729 54.6666 50.184L56.8396 52.357L55.883 53.3273C55.6284 53.5834 55.4856 53.9297 55.4856 54.2908C55.4856 54.6519 55.6284 54.9982 55.883 55.2543L63.2766 62.6616V64.9713C63.2767 65.6131 63.0246 66.2292 62.5747 66.6868C62.1247 67.1444 61.513 67.4069 60.8713 67.4176ZM32.8 38.6356C32.8 36.2029 33.5214 33.8248 34.8729 31.8021C36.2244 29.7794 38.1454 28.2029 40.393 27.2719C42.6405 26.341 45.1136 26.0974 47.4996 26.572C49.8856 27.0466 52.0772 28.218 53.7974 29.9382C55.5176 31.6584 56.689 33.8501 57.1636 36.236C57.6382 38.622 57.3946 41.0951 56.4637 43.3426C55.5327 45.5902 53.9562 47.5112 51.9335 48.8627C49.9108 50.2143 47.5327 50.9356 45.1 50.9356C41.8378 50.9356 38.7093 49.6397 36.4026 47.333C34.0959 45.0263 32.8 41.8978 32.8 38.6356ZM67.5133 61.049C67.2573 61.3035 66.9109 61.4464 66.5498 61.4464C66.1888 61.4464 65.8424 61.3035 65.5863 61.049L58.753 54.2156L60.68 52.2886L67.445 59.0536C67.586 59.1767 67.7002 59.3275 67.7806 59.4965C67.861 59.6656 67.9057 59.8494 67.9121 60.0365C67.9185 60.2236 67.8864 60.41 67.8178 60.5841C67.7492 60.7583 67.6456 60.9165 67.5133 61.049Z" fill="white"/>
<path d="M49.2001 44.526C49.2001 44.1636 49.0561 43.8159 48.7998 43.5596C48.5435 43.3033 48.1959 43.1593 47.8334 43.1593H46.4668V35.055H48.7491V35.5333C48.7491 35.8958 48.8931 36.2434 49.1494 36.4997C49.4057 36.756 49.7533 36.9 50.1158 36.9C50.4782 36.9 50.8259 36.756 51.0822 36.4997C51.3385 36.2434 51.4824 35.8958 51.4824 35.5333V33.7567C51.4824 33.3942 51.3385 33.0466 51.0822 32.7903C50.8259 32.534 50.4782 32.39 50.1158 32.39H40.0844C39.722 32.39 39.3744 32.534 39.1181 32.7903C38.8618 33.0466 38.7178 33.3942 38.7178 33.7567V35.5333C38.7178 35.8958 38.8618 36.2434 39.1181 36.4997C39.3744 36.756 39.722 36.9 40.0844 36.9C40.4469 36.9 40.7945 36.756 41.0508 36.4997C41.3071 36.2434 41.4511 35.8958 41.4511 35.5333V35.1233H43.7334V43.2277H42.4351C42.2556 43.2277 42.0779 43.263 41.9121 43.3317C41.7463 43.4004 41.5956 43.5011 41.4687 43.628C41.3418 43.7549 41.2412 43.9055 41.1725 44.0714C41.1038 44.2372 41.0684 44.4149 41.0684 44.5943C41.0684 44.7738 41.1038 44.9515 41.1725 45.1173C41.2412 45.2832 41.3418 45.4338 41.4687 45.5607C41.5956 45.6876 41.7463 45.7883 41.9121 45.857C42.0779 45.9257 42.2556 45.961 42.4351 45.961H47.8334C48.0188 45.9612 48.2023 45.9238 48.3727 45.8509C48.5431 45.7779 48.697 45.6711 48.8248 45.5369C48.9526 45.4026 49.0518 45.2438 49.1164 45.07C49.1809 44.8962 49.2094 44.7112 49.2001 44.526Z" fill="white"/>
</svg>
