<svg width="160" height="40" viewBox="0 0 160 40" fill="none" xmlns="http://www.w3.org/2000/svg">
<path d="M63.365 13.1686C62.7232 13.5309 62.0555 13.7845 61.3619 13.9295C60.6786 14.0847 59.9799 14.1624 59.2656 14.1624C58.4271 14.1624 57.6559 14.0226 56.952 13.7431C56.2584 13.4533 55.6631 13.0547 55.1662 12.5475C54.6694 12.0299 54.2812 11.4191 54.0017 10.7152C53.7222 10.0009 53.5824 9.2245 53.5824 8.38599C53.5824 7.54749 53.7222 6.77627 54.0017 6.07234C54.2812 5.36841 54.6694 4.76282 55.1662 4.25558C55.6631 3.73798 56.2584 3.33425 56.952 3.0444C57.6559 2.75455 58.4271 2.60962 59.2656 2.60962C60.9012 2.60962 62.2211 3.11686 63.2252 4.13135L62.4799 4.90775C62.3143 4.71106 62.1072 4.5299 61.8588 4.36427C61.6207 4.18829 61.3567 4.04336 61.0668 3.92949C60.7873 3.80527 60.4923 3.7121 60.1818 3.64999C59.8712 3.57752 59.5658 3.54129 59.2656 3.54129C58.5513 3.54129 57.9043 3.66552 57.3246 3.91396C56.7553 4.16241 56.2687 4.50402 55.865 4.9388C55.4613 5.37358 55.1507 5.886 54.9333 6.47606C54.7159 7.06612 54.6072 7.70277 54.6072 8.38599C54.6072 9.06922 54.7159 9.70586 54.9333 10.2959C55.1507 10.886 55.4613 11.3984 55.865 11.8332C56.2687 12.268 56.7553 12.6096 57.3246 12.858C57.9043 13.1065 58.5513 13.2307 59.2656 13.2307C59.8557 13.2307 60.4095 13.1841 60.9271 13.0909C61.4447 12.9978 61.9157 12.827 62.3401 12.5785V8.88289H59.7004V7.95121H63.365V13.1686Z" fill="white"/>
<path d="M71.8306 7.73382H74.0045C74.5428 7.73382 74.9776 7.66653 75.3089 7.53196C75.6505 7.39739 75.9145 7.23175 76.1008 7.03507C76.2871 6.83838 76.4114 6.62617 76.4735 6.39842C76.5459 6.17068 76.5822 5.96364 76.5822 5.77731C76.5822 5.59097 76.5459 5.38393 76.4735 5.15619C76.4114 4.92845 76.2871 4.71624 76.1008 4.51955C75.9145 4.32286 75.6505 4.15723 75.3089 4.02266C74.9776 3.88808 74.5428 3.82079 74.0045 3.82079H71.8306V7.73382ZM70.8058 2.88912H73.694C73.8389 2.88912 74.0356 2.8943 74.284 2.90465C74.5325 2.915 74.8016 2.94606 75.0915 2.99782C75.3814 3.04958 75.6764 3.13239 75.9766 3.24626C76.2768 3.36013 76.5459 3.52576 76.784 3.74315C77.0221 3.96055 77.2188 4.23487 77.3741 4.56613C77.5294 4.89739 77.607 5.30112 77.607 5.77731C77.607 6.30526 77.5138 6.74004 77.3275 7.08165C77.1515 7.42326 76.9238 7.70277 76.6443 7.92016C76.3751 8.1272 76.0749 8.28247 75.7437 8.38599C75.4124 8.48951 75.0967 8.56198 74.7965 8.60338L77.9952 13.8829H76.8306L73.7406 8.6655H71.8306V13.8829H70.8058V2.88912Z" fill="white"/>
<path d="M84.4338 2.88912H85.4586V13.8829H84.4338V2.88912Z" fill="white"/>
<path d="M92.8908 2.88912H99.4746V3.82079H93.9157V7.73382H99.0864V8.6655H93.9157V13.8829H92.8908V2.88912Z" fill="white"/>
<path d="M105.943 2.88912H112.526V3.82079H106.967V7.73382H112.138V8.6655H106.967V13.8829H105.943V2.88912Z" fill="white"/>
<path d="M118.994 2.88912H120.019V13.8829H118.994V2.88912Z" fill="white"/>
<path d="M129.889 3.82079H126.131V2.88912H134.672V3.82079H130.914V13.8829H129.889V3.82079Z" fill="white"/>
<path d="M140.791 2.88912H141.816V7.73382H147.965V2.88912H148.99V13.8829H147.965V8.6655H141.816V13.8829H140.791V2.88912Z" fill="white"/>
<path d="M52.7439 24.1467H53.8464L57.3867 33.7895L60.9581 24.1467H62.0451L57.8681 35.1404H56.8433L52.7439 24.1467Z" fill="white"/>
<path d="M67.9246 24.1467H74.6482V25.0783H68.9495V28.9914H74.2911V29.923H68.9495V34.2087H74.8967V35.1404H67.9246V24.1467Z" fill="white"/>
<path d="M81.5526 24.1467H82.8725L89.565 33.7739H89.5961V24.1467H90.6209V35.1404H89.301L82.6085 25.5131H82.5775V35.1404H81.5526V24.1467Z" fill="white"/>
<path d="M100.5 25.0783H96.7419V24.1467H105.282V25.0783H101.524V35.1404H100.5V25.0783Z" fill="white"/>
<path d="M119.212 30.9323C119.212 31.5224 119.145 32.0866 119.01 32.6249C118.876 33.1632 118.648 33.6394 118.327 34.0534C118.016 34.4675 117.602 34.7988 117.085 35.0472C116.578 35.2957 115.951 35.4199 115.206 35.4199C114.461 35.4199 113.829 35.2957 113.312 35.0472C112.804 34.7988 112.39 34.4675 112.069 34.0534C111.759 33.6394 111.536 33.1632 111.402 32.6249C111.267 32.0866 111.2 31.5224 111.2 30.9323V24.1467H112.225V30.6684C112.225 31.0617 112.261 31.481 112.333 31.9261C112.406 32.3713 112.545 32.7853 112.753 33.1684C112.97 33.5514 113.27 33.8671 113.653 34.1156C114.046 34.364 114.564 34.4882 115.206 34.4882C115.848 34.4882 116.36 34.364 116.743 34.1156C117.137 33.8671 117.437 33.5514 117.644 33.1684C117.861 32.7853 118.006 32.3713 118.079 31.9261C118.151 31.481 118.187 31.0617 118.187 30.6684V24.1467H119.212V30.9323Z" fill="white"/>
<path d="M127.465 28.9914H129.639C130.177 28.9914 130.612 28.9241 130.943 28.7895C131.284 28.6549 131.548 28.4893 131.735 28.2926C131.921 28.0959 132.045 27.8837 132.107 27.656C132.18 27.4282 132.216 27.2212 132.216 27.0348C132.216 26.8485 132.18 26.6415 132.107 26.4137C132.045 26.186 131.921 25.9738 131.735 25.7771C131.548 25.5804 131.284 25.4148 130.943 25.2802C130.612 25.1456 130.177 25.0783 129.639 25.0783H127.465V28.9914ZM126.44 24.1467H129.328C129.473 24.1467 129.67 24.1518 129.918 24.1622C130.166 24.1725 130.436 24.2036 130.725 24.2554C131.015 24.3071 131.31 24.3899 131.611 24.5038C131.911 24.6177 132.18 24.7833 132.418 25.0007C132.656 25.2181 132.853 25.4924 133.008 25.8237C133.163 26.1549 133.241 26.5587 133.241 27.0348C133.241 27.5628 133.148 27.9976 132.962 28.3392C132.786 28.6808 132.558 28.9603 132.278 29.1777C132.009 29.3847 131.709 29.54 131.378 29.6435C131.046 29.747 130.731 29.8195 130.43 29.8609L133.629 35.1404H132.465L129.375 29.923H127.465V35.1404H126.44V24.1467Z" fill="white"/>
<path d="M140.068 24.1467H146.791V25.0783H141.093V28.9914H146.434V29.923H141.093V34.2087H147.04V35.1404H140.068V24.1467Z" fill="white"/>
<path d="M153.991 33.1062C154.26 33.5721 154.607 33.9189 155.031 34.1466C155.466 34.3744 155.958 34.4882 156.506 34.4882C156.848 34.4882 157.169 34.4365 157.469 34.333C157.769 34.2294 158.028 34.0845 158.245 33.8982C158.473 33.7118 158.649 33.4893 158.773 33.2305C158.908 32.9613 158.975 32.6611 158.975 32.3299C158.975 31.9468 158.892 31.6311 158.727 31.3827C158.571 31.1342 158.359 30.9323 158.09 30.7771C157.821 30.6114 157.516 30.4717 157.174 30.3578C156.843 30.2439 156.496 30.1301 156.134 30.0162C155.782 29.9023 155.435 29.7729 155.093 29.628C154.762 29.4831 154.462 29.2967 154.193 29.069C153.923 28.8309 153.706 28.5359 153.54 28.1839C153.385 27.8319 153.308 27.3972 153.308 26.8796C153.308 26.393 153.401 25.9634 153.587 25.5907C153.784 25.2077 154.043 24.892 154.363 24.6435C154.695 24.3848 155.073 24.1932 155.497 24.069C155.921 23.9344 156.367 23.8672 156.832 23.8672C157.433 23.8672 157.987 23.9758 158.494 24.1932C159.011 24.4003 159.457 24.7522 159.829 25.2491L158.944 25.8858C158.685 25.5235 158.38 25.2543 158.028 25.0783C157.686 24.892 157.277 24.7988 156.801 24.7988C156.47 24.7988 156.154 24.8454 155.854 24.9386C155.554 25.0214 155.29 25.1508 155.062 25.3268C154.845 25.4924 154.669 25.7046 154.534 25.9634C154.4 26.2222 154.332 26.5276 154.332 26.8796C154.332 27.4282 154.472 27.8526 154.752 28.1529C155.031 28.4427 155.378 28.6756 155.792 28.8516C156.216 29.0172 156.672 29.1673 157.158 29.3019C157.655 29.4261 158.111 29.5969 158.525 29.8143C158.949 30.0317 159.301 30.3371 159.581 30.7305C159.86 31.1135 160 31.6466 160 32.3299C160 32.8267 159.907 33.2667 159.721 33.6497C159.534 34.0327 159.281 34.3588 158.96 34.628C158.649 34.8868 158.287 35.0835 157.873 35.218C157.459 35.3526 157.029 35.4199 156.584 35.4199C155.859 35.4199 155.192 35.2957 154.581 35.0472C153.97 34.7884 153.447 34.3588 153.012 33.7584L153.991 33.1062Z" fill="white"/>
<path d="M39.4732 0H0V39.4732H39.4732V0Z" fill="#BA9668"/>
<mask id="mask0" mask-type="alpha" maskUnits="userSpaceOnUse" x="5" y="9" width="30" height="22">
<path d="M5.50024 9.3833H34.2748V30.2883H5.50024V9.3833Z" fill="white"/>
</mask>
<g mask="url(#mask0)">
<path fill-rule="evenodd" clip-rule="evenodd" d="M30.0252 11.2469L23.5223 25.7108L20.2026 18.4388H19.4501H16.3128H13.5309V21.8721H17.8793L19.6137 25.6712C18.5495 26.3414 17.3009 26.7438 15.9542 26.7438C12.1436 26.7438 9.04484 23.645 9.04484 19.8354C9.04484 16.0269 12.1436 12.9271 15.9542 12.9271C18.2566 12.9271 20.286 14.0705 21.542 15.807L23.2784 12.3966C21.3908 10.5371 18.8059 9.3833 15.9542 9.3833C10.1903 9.3833 5.5 14.0726 5.5 19.8354C5.5 25.5983 10.1903 30.2886 15.9542 30.2886C17.8272 30.2886 19.5595 29.7518 21.0781 28.8794L21.0938 28.9149L21.2824 28.7721C21.7358 28.4979 22.1569 28.1821 22.5634 27.8444L21.5242 30.1562H25.4141L34.2746 11.2469H30.0252Z" fill="white"/>
</g>
</svg>
